<?xml version="1.0" encoding="utf-8"?>
<!-- Generator: Adobe Illustrator 16.0.0, SVG Export Plug-In . SVG Version: 6.00 Build 0)  -->
<!DOCTYPE svg PUBLIC "-//W3C//DTD SVG 1.1//EN" "http://www.w3.org/Graphics/SVG/1.1/DTD/svg11.dtd">
<svg version="1.1"
	 id="svg22133" xmlns:rdf="http://www.w3.org/1999/02/22-rdf-syntax-ns#" xmlns:dc="http://purl.org/dc/elements/1.1/" xmlns:cc="http://creativecommons.org/ns#" xmlns:svg="http://www.w3.org/2000/svg" xmlns:sodipodi="http://sodipodi.sourceforge.net/DTD/sodipodi-0.dtd" xmlns:inkscape="http://www.inkscape.org/namespaces/inkscape" sodipodi:docname="telephone.svg" inkscape:version="0.48.3.1 r9886"
	 xmlns="http://www.w3.org/2000/svg" xmlns:xlink="http://www.w3.org/1999/xlink" x="0px" y="0px" width="75.712px" height="100px"
	 viewBox="-24.028 -31.736 75.712 100" enable-background="new -24.028 -31.736 75.712 100" xml:space="preserve">
<path d="M13.785,0.174c8.748,0,15.912-7.234,15.912-15.998c0-8.763-7.164-15.912-15.912-15.912c-8.747,0-15.827,7.149-15.827,15.912
	C-2.041-7.06,5.038,0.174,13.785,0.174z M13.785-26.603c6.021,0,10.95,4.746,10.95,10.779c0,6.034-4.93,10.951-10.95,10.951
	S3.007-9.79,3.007-15.824C3.007-21.857,7.765-26.603,13.785-26.603z"/>
<path d="M-17.109,16.866c1.396,0.029,2.548-1.077,2.577-2.472c0-0.035,0-0.069,0-0.104c0-1.131,0.294-1.874,0.941-2.652
	c0.647-0.778,1.748-1.579,3.336-2.31c2.978-1.373,7.75-2.429,13.174-3.422C5.979,8.187,9.687,9.67,13.785,9.67
	c4.099,0,7.871-1.476,10.95-3.764C30.153,6.903,34.93,7.954,37.91,9.328c1.588,0.732,2.689,1.532,3.337,2.31
	c0.646,0.778,0.94,1.526,0.94,2.652c-0.029,1.394,1.078,2.546,2.471,2.576c1.396,0.029,2.548-1.077,2.577-2.472
	c0-0.035,0-0.069,0-0.104c0-2.202-0.732-4.318-2.053-5.903c-1.321-1.585-3.109-2.746-5.134-3.679
	c-4.05-1.866-9.324-2.949-15.313-4.021c-0.74-0.115-1.491,0.104-2.053,0.599c-2.35,2.076-5.488,3.336-8.897,3.336
	c-3.408,0-6.445-1.246-8.812-3.336C4.412,0.792,3.661,0.573,2.921,0.688C-3.078,1.756-8.343,2.842-12.393,4.708
	c-2.023,0.933-3.815,2.09-5.133,3.679c-1.318,1.588-2.053,3.7-2.053,5.903C-19.608,15.684-18.501,16.836-17.109,16.866z"/>
<path d="M49.203,18.739c-7.962-0.028-13.832,0.521-24.724,4.534c-1.361,0.305-2.217,1.655-1.915,3.014
	c0.306,1.363,1.655,2.219,3.016,1.914c0.212-0.049,0.418-0.123,0.61-0.223c9.261-3.411,14.147-3.916,20.446-4.021v31.226
	c-8.523,0.463-16.937,2.674-29.173,7.101V28.491c-0.021-1.029-0.663-1.943-1.625-2.31c-8.194-3.066-18.14-6.632-27.975-7.529
	c-1.639-0.149-3.246-0.263-4.876-0.256c-1.631,0.006-3.288,0.135-4.876,0.342c-1.225,0.19-2.134,1.241-2.139,2.481v36.102
	c-0.026,1.332,0.984,2.454,2.31,2.566c9.627,0.778,13.643,0.997,22.072,4.534c1.219,0.677,2.756,0.238,3.433-0.98
	c0.676-1.22,0.235-2.757-0.984-3.433c-0.152-0.086-0.312-0.155-0.481-0.206c-8.031-3.371-13.359-4.034-21.302-4.705V23.7
	c9.948-0.596,21.58,3.056,31.396,6.673v35.332c-0.021,1.394,1.094,2.54,2.489,2.559c0.318,0.006,0.634-0.048,0.934-0.163
	c15.658-5.836,23.668-8.041,33.364-8.213c1.393-0.023,2.505-1.173,2.48-2.566V21.22C51.66,19.858,50.564,18.761,49.203,18.739z"/>
</svg>
